<?xml version="1.0" encoding="UTF-8"?>
<svg id="Layer_2" data-name="Layer 2" xmlns="http://www.w3.org/2000/svg" viewBox="0 0 100 52">
  <defs>
    <style>
      .cls-1 {
        fill: #68a626;
      }

      .cls-2 {
        fill: #bad69b;
      }

      .cls-3 {
        fill: #95c167;
      }

      .cls-4 {
        fill: #d5d5d5;
      }

      .cls-5 {
        fill: #f2f2f2;
      }

      .cls-6 {
        fill: #bfbfbf;
      }

      .cls-7 {
        fill: none;
        stroke: #231f20;
        stroke-width: 4px;
      }

      .cls-8 {
        fill: #e6e6e6;
      }
    </style>
  </defs>
  <g id="Layer_1-2" data-name="Layer 1">
    <g>
      <rect class="cls-6" x="2" y="2" width="96" height="48" rx="24" ry="24"/>
      <path class="cls-4" d="M26,50c-11.85,0-21.5-9.64-21.5-21.5S14.15,7,26,7h48c11.86,0,21.5,9.64,21.5,21.5s-9.64,21.5-21.5,21.5H26Z"/>
      <path class="cls-8" d="M26,45c-10.48,0-19-8.52-19-19S15.52,7,26,7h48c10.48,0,19,8.52,19,19s-8.52,19-19,19H26Z"/>
      <path class="cls-5" d="M26,42.5c-9.1,0-16.5-7.4-16.5-16.5s7.4-16.5,16.5-16.5h48c9.1,0,16.5,7.4,16.5,16.5s-7.4,16.5-16.5,16.5H26Z"/>
    </g>
    <g>
      <circle class="cls-3" cx="74" cy="26" r="12"/>
      <path class="cls-1" d="M82.49,17.51c-2.17-2.17-5.17-3.51-8.49-3.51s-6.31,1.34-8.49,3.51-3.51,5.17-3.51,8.49,1.34,6.31,3.51,8.49c2.17,2.17,5.17,3.51,8.49,3.51s6.31-1.34,8.49-3.51c2.17-2.17,3.51-5.17,3.51-8.49s-1.34-6.31-3.51-8.49ZM81.57,24.44c-.27,2.28-1.41,4.43-3.06,6.07-1.64,1.64-3.79,2.78-6.07,3.06-2.28.25-4.5-.47-6.21-1.91-1.3-1.02-2.27-2.57-2.56-4.3-.12-.73-.17-1.48-.13-2.24.13-2.58,1.24-4.91,2.96-6.62,1.72-1.72,4.05-2.83,6.63-2.96.77-.04,1.52,0,2.25.13,1.72.29,3.27,1.25,4.29,2.56,1.45,1.71,2.17,3.94,1.91,6.21Z"/>
      <circle class="cls-2" cx="69.5" cy="21.5" r="3"/>
    </g>
    <rect class="cls-7" x="2" y="2" width="96" height="48" rx="24" ry="24"/>
  </g>
</svg>